<svg width="21" height="25" viewBox="0 0 21 25" fill="none" xmlns="http://www.w3.org/2000/svg">
<path d="M17.7975 16.333L16.3289 15.9022L13.1337 13.8172V13.3394C14.0588 12.6423 14.694 11.5767 14.8121 10.3553C15.2761 10.2807 15.6316 9.87789 15.6316 9.39371V8.07999C15.6316 8.07491 15.631 8.06993 15.6308 8.06486V6.4007C15.8156 6.26847 15.9329 6.05309 15.9329 5.81149V4.28854L18.138 3.91329C18.5004 3.85162 18.761 3.56407 18.7866 3.19772C18.8121 2.83136 18.594 2.51046 18.2437 2.39918L10.81 0.0369751C10.6549 -0.0123413 10.4911 -0.0122925 10.336 0.0369263L2.90227 2.39918C2.55198 2.51046 2.33381 2.83136 2.35937 3.19767C2.3756 3.43043 2.48693 3.63112 2.65877 3.76256V5.75411H2.64059C2.22198 5.75411 1.88142 6.09435 1.88142 6.51256V7.50113L1.39136 10.3748C1.30666 10.8718 1.68984 11.3267 2.19569 11.3267H3.85493C4.35966 11.3267 4.74416 10.8729 4.65926 10.3747L4.16919 7.50113V6.51256C4.16919 6.09435 3.82864 5.75411 3.41003 5.75411H3.39189V3.97858L5.21462 4.28873V5.81149C5.21462 6.05206 5.33138 6.2671 5.51535 6.39952L5.51603 8.08014V9.39371C5.51603 9.87794 5.8715 10.2807 6.33546 10.3553C6.4535 11.576 7.08808 12.6411 8.0123 13.3383V13.8183L4.81776 15.9029L3.3503 16.3332C1.78001 16.7937 0.67124 18.2339 0.67124 19.9082V20.9996C0.67124 21.2018 0.835312 21.3658 1.0378 21.3658C1.24029 21.3658 1.40436 21.2019 1.40436 20.9996V19.9082C1.40436 18.5886 2.28943 17.4075 3.5568 17.0359L4.92411 16.635L10.3866 19.8778C10.4975 19.9436 10.6442 19.9471 10.7611 19.8778L16.224 16.6348L17.5911 17.0358C18.8583 17.4074 19.7434 18.5885 19.7434 19.9079V23.4449C19.7434 23.8986 19.3739 24.2677 18.9198 24.2677H17.3042V22.6892C17.3042 22.4869 17.1401 22.323 16.9376 22.323C16.7352 22.323 16.5711 22.4869 16.5711 22.6892V24.2677H4.5749V22.6892C4.5749 22.4869 4.41083 22.323 4.20834 22.323C4.00586 22.323 3.84178 22.4869 3.84178 22.6892V24.2677H2.2278C1.7737 24.2677 1.40426 23.8986 1.40426 23.4449V22.7114C1.40426 22.5092 1.24019 22.3452 1.0377 22.3452C0.835215 22.3452 0.671143 22.5091 0.671143 22.7114V23.4449C0.671143 24.3024 1.36941 25 2.22775 25H18.9197C19.7781 25 20.4764 24.3024 20.4764 23.4449V19.9079C20.4764 18.2731 19.4054 16.8046 17.7975 16.333ZM3.85488 10.5943H2.19569C2.14442 10.5943 2.10532 10.5485 2.11402 10.4977L2.55731 7.8983H3.49326L3.93655 10.4977C3.9452 10.5484 3.9064 10.5943 3.85488 10.5943ZM3.43608 6.51256V7.16593H2.61445V6.51256C2.61445 6.49816 2.62613 6.48649 2.64054 6.48649H3.40993C3.4244 6.48644 3.43608 6.49816 3.43608 6.51256ZM9.26281 18.2213L9.4087 18.4453L5.66642 16.2237L8.04177 14.6737C8.14949 15.9364 8.5661 17.1515 9.26281 18.2213ZM9.26027 16.6404C10.123 16.7629 11.024 16.763 11.8873 16.6404C11.7205 17.0505 11.5149 17.4462 11.2703 17.8219L10.5738 18.8914L9.87726 17.8219C9.63264 17.4462 9.42708 17.0505 9.26027 16.6404ZM11.8847 18.2213C12.5814 17.1515 12.998 15.9364 13.1057 14.6737L15.4811 16.2237L11.7388 18.4453L11.8847 18.2213ZM14.0289 6.53707H14.8977V7.71373H14.4665C14.2252 7.71373 14.0289 7.51764 14.0289 7.27657V6.53707H14.0289ZM3.12445 3.09713L10.5583 0.734827C10.5679 0.731799 10.5781 0.73175 10.5878 0.734876L18.0216 3.09713C18.037 3.10201 18.058 3.10865 18.0553 3.14679C18.0527 3.18488 18.0309 3.18854 18.015 3.19127L15.5572 3.60948L14.6344 3.49547C14.4336 3.47062 14.2506 3.61329 14.2257 3.81398C14.2009 4.01471 14.3436 4.19752 14.5445 4.22233L15.1999 4.30333V5.8047L5.94769 5.80436V4.30328L9.7407 3.83439C10.2932 3.76617 10.8533 3.76617 11.4054 3.83439L12.841 4.01178C13.0418 4.03663 13.2249 3.89401 13.2498 3.69332C13.2746 3.49259 13.1319 3.30978 12.931 3.28492L11.4954 3.10753C10.8836 3.0319 10.2629 3.0319 9.65072 3.10753L5.58954 3.60958L3.131 3.19127C3.11507 3.18854 3.09332 3.18488 3.09063 3.14679C3.08799 3.10865 3.10906 3.10197 3.12445 3.09713ZM6.24891 7.71373L6.24842 6.53707H7.11863V7.27662C7.11863 7.51764 6.92235 7.71378 6.68101 7.71378H6.24891V7.71373ZM7.05568 10.1671C7.03681 9.86886 6.78873 9.63527 6.49093 9.63527C6.35755 9.63527 6.24905 9.52687 6.24905 9.39366V8.44615H6.68101C7.32649 8.44615 7.8517 7.9215 7.8517 7.27662V6.53707H13.2958V7.27662C13.2958 7.9215 13.821 8.44615 14.4665 8.44615H14.8984V9.39366C14.8984 9.52687 14.7899 9.63527 14.6566 9.63527C14.3588 9.63527 14.1107 9.86886 14.0918 10.1671C13.9751 12.0162 12.4297 13.4647 10.5737 13.4647C8.71771 13.4647 7.17244 12.0162 7.05568 10.1671ZM10.5738 14.197C11.2257 14.197 11.8453 14.0481 12.4006 13.7833V14.0154C12.4006 14.6415 12.3161 15.2591 12.1533 15.8548C11.1571 16.0446 10.0309 16.0523 8.99429 15.8548C8.83149 15.2592 8.74694 14.6416 8.74694 14.0154C8.74694 14.0076 8.74586 14.0001 8.74537 13.9924C8.74527 13.9909 8.74542 13.9894 8.74532 13.9879V13.7826C9.30098 14.0478 9.9212 14.197 10.5738 14.197Z" fill="white"/>
</svg>
