<svg width="26" height="24" viewBox="0 0 26 24" fill="none" xmlns="http://www.w3.org/2000/svg">
<path d="M2.99449 14.954L1.12811 14.5426C0.581109 15.6452 0.0620117 16.8837 0.0620117 18.3105C0.0620117 19.7101 0.560093 20.9336 1.12811 22.0785L7.44207 20.687V23.4312L9.64143 22.3325L11.8408 23.4312V20.6884L18.1055 22.0792C18.6482 20.9853 19.172 19.7435 19.172 18.3105C19.172 18.0636 19.1537 17.8177 19.123 17.5781H25.0858V0H2.99449V14.954ZM1.9647 20.394C1.77399 19.8902 1.52825 19.0898 1.52825 18.3105C1.52825 17.5312 1.77404 16.7307 1.9647 16.227L7.44207 17.4342V19.1869L1.9647 20.394ZM10.3745 21.061L9.64143 20.6948L8.90831 21.061V17.5781H10.3745V21.061ZM17.2696 20.3931L11.8408 19.1878V17.4332L17.2696 16.2279C17.4603 16.7318 17.7057 17.5317 17.7057 18.3105C17.7057 19.0895 17.4602 19.8895 17.2696 20.3931ZM23.6196 1.46484V16.1133H18.7836C18.5433 15.3788 18.3495 15.0319 18.1055 14.5418L11.0272 16.1133H8.25515L4.46072 15.277V1.46484H23.6196Z" fill="white"/>
<path d="M8.9082 2.92969H19.1719V4.39453H8.9082V2.92969Z" fill="white"/>
<path d="M5.92676 8.78906H22.1531V10.2539H5.92676V8.78906Z" fill="white"/>
<path d="M8.9082 11.7188H19.1719V13.1836H8.9082V11.7188Z" fill="white"/>
<path d="M10.3745 5.85938H11.8407V7.32422H10.3745V5.85938Z" fill="white"/>
<path d="M13.3069 5.85938H14.7731V7.32422H13.3069V5.85938Z" fill="white"/>
<path d="M16.2395 5.85938H17.7057V7.32422H16.2395V5.85938Z" fill="white"/>
</svg>
