<svg width="26" height="25" viewBox="0 0 26 25" fill="none" xmlns="http://www.w3.org/2000/svg">
<path d="M20.8774 19.1457L20.2268 19.5793L21.7588 21.875H4.45207L6.27685 19.1406H16.2109V18.3594H6.06767C6.00331 18.3594 5.93995 18.3752 5.8832 18.4055C5.82645 18.4359 5.77807 18.4797 5.74236 18.5332L3.39638 22.0488C3.35366 22.1131 3.33081 22.1885 3.33069 22.2656V23.4375C3.33069 23.6447 3.41308 23.8434 3.55973 23.9899C3.70638 24.1364 3.90528 24.2188 4.11268 24.2188H22.0985C22.3059 24.2188 22.5048 24.1364 22.6515 23.9899C22.7981 23.8434 22.8805 23.6447 22.8805 23.4375V22.2656C22.8804 22.1885 22.8576 22.1131 22.8148 22.0488L20.8774 19.1457ZM4.11268 23.4375V22.6562H22.0985V23.4375H4.11268Z" fill="white"/>
<path d="M20.9255 0.78125H5.28566C4.97485 0.782177 4.67703 0.90594 4.45726 1.12551C4.23748 1.34508 4.1136 1.64261 4.11267 1.95312V12.1094C4.1136 12.4199 4.23748 12.7174 4.45726 12.937C4.67703 13.1566 4.97485 13.2803 5.28566 13.2812H10.7596V14.8438H9.19563C9.09193 14.8438 8.99248 14.8849 8.91915 14.9582C8.84582 15.0314 8.80463 15.1308 8.80463 15.2344V16.7969C8.80463 16.9005 8.84582 16.9998 8.91915 17.0731C8.99248 17.1463 9.09193 17.1875 9.19563 17.1875H17.0156C17.1193 17.1875 17.2187 17.1463 17.292 17.0731C17.3654 16.9998 17.4066 16.9005 17.4066 16.7969V15.2344C17.4066 15.1308 17.3654 15.0314 17.292 14.9582C17.2187 14.8849 17.1193 14.8438 17.0156 14.8438H15.4516V13.2812H20.9255C21.2363 13.2803 21.5342 13.1566 21.7539 12.937C21.9737 12.7174 22.0976 12.4199 22.0985 12.1094V1.95312C22.0976 1.64261 21.9737 1.34508 21.7539 1.12551C21.5342 0.90594 21.2363 0.782177 20.9255 0.78125ZM16.6246 15.625V16.4062H9.58662V15.625H16.6246ZM11.5416 14.8438V13.2812H14.6696V14.8438H11.5416ZM21.3165 12.1094C21.3165 12.213 21.2753 12.3123 21.202 12.3856C21.1287 12.4588 21.0292 12.5 20.9255 12.5H5.28566C5.18196 12.5 5.08251 12.4588 5.00918 12.3856C4.93586 12.3123 4.89466 12.213 4.89466 12.1094V10.9375H21.3165V12.1094ZM21.3165 10.1562H4.89466V1.95312C4.89466 1.84952 4.93586 1.75017 5.00918 1.67691C5.08251 1.60366 5.18196 1.5625 5.28566 1.5625H20.9255C21.0292 1.5625 21.1287 1.60366 21.202 1.67691C21.2753 1.75017 21.3165 1.84952 21.3165 1.95312V10.1562Z" fill="white"/>
<path d="M18.9706 11.3281H19.7533V12.1094H18.9706V11.3281Z" fill="white"/>
<path d="M9.58668 9.375H11.1507C11.2544 9.375 11.3538 9.33385 11.4271 9.26059C11.5005 9.18733 11.5417 9.08798 11.5417 8.98438V8.59375H14.6696V8.98438C14.6696 9.08798 14.7108 9.18733 14.7842 9.26059C14.8575 9.33385 14.9569 9.375 15.0606 9.375H16.6246C16.7283 9.375 16.8278 9.33385 16.9011 9.26059C16.9744 9.18733 17.0156 9.08798 17.0156 8.98438V7.42188C17.0156 7.31827 16.9744 7.21892 16.9011 7.14566C16.8278 7.0724 16.7283 7.03125 16.6246 7.03125H16.2336V4.6875H16.6246C16.7283 4.6875 16.8278 4.64634 16.9011 4.57309C16.9744 4.49983 17.0156 4.40048 17.0156 4.29688V2.73438C17.0156 2.63077 16.9744 2.53142 16.9011 2.45816C16.8278 2.38491 16.7283 2.34375 16.6246 2.34375H15.0606C14.9569 2.34375 14.8575 2.38491 14.7842 2.45816C14.7108 2.53142 14.6696 2.63077 14.6696 2.73438V3.125H11.5417V2.73438C11.5417 2.63077 11.5005 2.53142 11.4271 2.45816C11.3538 2.38491 11.2544 2.34375 11.1507 2.34375H9.58668C9.48298 2.34375 9.38352 2.38491 9.3102 2.45816C9.23687 2.53142 9.19568 2.63077 9.19568 2.73438V4.29688C9.19568 4.40048 9.23687 4.49983 9.3102 4.57309C9.38352 4.64634 9.48298 4.6875 9.58668 4.6875H9.97767V7.03125H9.58668C9.48298 7.03125 9.38352 7.0724 9.3102 7.14566C9.23687 7.21892 9.19568 7.31827 9.19568 7.42188V8.98438C9.19568 9.08798 9.23687 9.18733 9.3102 9.26059C9.38352 9.33385 9.48298 9.375 9.58668 9.375ZM16.2336 8.59375H15.4516V7.8125H16.2336V8.59375ZM15.4516 3.125H16.2336V3.90625H15.4516V3.125ZM9.97767 3.125H10.7597V3.90625H9.97767V3.125ZM10.7597 4.6875H11.1507C11.2544 4.6875 11.3538 4.64634 11.4271 4.57309C11.5005 4.49983 11.5417 4.40048 11.5417 4.29688V3.90625H14.6696V4.29688C14.6696 4.40048 14.7108 4.49983 14.7842 4.57309C14.8575 4.64634 14.9569 4.6875 15.0606 4.6875H15.4516V7.03125H15.0606C14.9569 7.03125 14.8575 7.0724 14.7842 7.14566C14.7108 7.21892 14.6696 7.31827 14.6696 7.42188V7.8125H11.5417V7.42188C11.5417 7.31827 11.5005 7.21892 11.4271 7.14566C11.3538 7.0724 11.2544 7.03125 11.1507 7.03125H10.7597V4.6875ZM9.97767 7.8125H10.7597V8.59375H9.97767V7.8125Z" fill="white"/>
<path d="M9.58667 20.3125H15.0606V21.0938H9.58667V20.3125Z" fill="white"/>
<path d="M24.0027 14.3906L22.8962 13.2852C22.8598 13.2488 22.8165 13.22 22.7688 13.2006C22.7212 13.1811 22.6701 13.1714 22.6186 13.1719C22.5677 13.1714 22.5172 13.1812 22.4702 13.2006C22.4231 13.2201 22.3805 13.2489 22.3449 13.2852L17.0899 18.5352C17.0471 18.5779 17.0149 18.6301 16.9961 18.6875L16.7185 19.5156C16.6961 19.5843 16.6931 19.6577 16.7096 19.728C16.7262 19.7982 16.7617 19.8626 16.8123 19.9141L16.261 20.4688L16.8123 21.0195L17.3675 20.4688C17.4034 20.5048 17.446 20.5333 17.493 20.5528C17.54 20.5722 17.5904 20.5822 17.6412 20.582C17.6836 20.5816 17.7258 20.575 17.7663 20.5625L18.5952 20.2852C18.6527 20.2664 18.705 20.2342 18.7477 20.1914L24.0027 14.9414C24.0755 14.8682 24.1164 14.7692 24.1164 14.666C24.1164 14.5628 24.0755 14.4638 24.0027 14.3906ZM18.2629 19.5742L17.7507 19.7422L17.5356 19.5313L17.7077 19.0195L21.5121 15.2188L22.0673 15.7695L18.2629 19.5742ZM22.6186 15.2188L22.0673 14.668L22.6186 14.1133L23.1738 14.668L22.6186 15.2188Z" fill="white"/>
</svg>
