<svg width="26" height="25" viewBox="0 0 26 25" fill="none" xmlns="http://www.w3.org/2000/svg">
<g clip-path="url(#clip0_119897_119)">
<path d="M23.119 3.75H11.8583V4.58333H23.119V3.75Z" fill="white"/>
<path d="M18.9483 5.41663H11.8583V6.24996H18.9483V5.41663Z" fill="white"/>
<path d="M18.9483 7.08337H11.8583V7.91671H18.9483V7.08337Z" fill="white"/>
<path d="M23.1189 2.08337H15.1947V2.91671H23.1189V2.08337Z" fill="white"/>
<path d="M14.3614 2.08337H13.5265V2.91671H14.3614V2.08337Z" fill="white"/>
<path d="M13.5273 16.6666H12.6924V17.5H13.5273V16.6666Z" fill="white"/>
<path d="M7.56537 2.79461L6.97564 2.20544L6.14152 3.03878C5.97871 3.20149 5.97871 3.46524 6.14152 3.62794L6.97564 4.46128L7.56537 3.87211L7.02611 3.33336L7.56537 2.79461Z" fill="white"/>
<path d="M10.9019 3.03878L10.0678 2.20544L9.47803 2.79461L10.0173 3.33336L9.47803 3.87211L10.0678 4.46128L10.9019 3.62794C11.0647 3.46524 11.0647 3.20149 10.9019 3.03878Z" fill="white"/>
<path d="M8.54348 1.95086L7.7085 4.45105L8.50003 4.71489L9.33501 2.2147L8.54348 1.95086Z" fill="white"/>
<path d="M22.2849 12.9167V9.58333H21.4507V12.9167H20.6166V8.75H19.7825V12.9167H18.9484V10.8333H18.1142V12.9167H17.2801V10.4167H16.446V12.9167H15.6119V11.25H14.7777V12.9167H13.9436V13.75H23.119V12.9167H22.2849Z" fill="white"/>
<path d="M22.7019 0H3.51703C2.13556 0.00135417 1.016 1.11984 1.01465 2.5V10.6775V10.6812V15.4167V16.6667C1.016 18.0468 2.13556 19.1653 3.51703 19.1667H8.6811L7.01285 22.5H4.76822C4.07719 22.5 3.51703 23.0596 3.51703 23.75C3.51703 24.4404 4.07719 25 4.76822 25H21.4507C22.1418 25 22.7019 24.4404 22.7019 23.75C22.7019 23.0596 22.1418 22.5 21.4507 22.5H19.2061L17.5379 19.1667H22.7019C24.0834 19.1653 25.203 18.0468 25.2043 16.6667V2.5C25.203 1.11984 24.0834 0.00135417 22.7019 0ZM1.84877 5.8625L2.79676 6.99C2.876 7.08432 2.99299 7.13875 3.11623 7.13875H4.39286C4.5161 7.13875 4.63309 7.08432 4.71233 6.99L5.66073 5.8625L6.59662 6.16625L6.70005 7.63417C6.7086 7.75693 6.77106 7.86964 6.87063 7.94208L7.9037 8.69208C8.00364 8.76417 8.13021 8.7887 8.24986 8.75917L9.68164 8.40375L10.2605 9.19917L9.4802 10.4492C9.41555 10.554 9.40059 10.6819 9.43932 10.7987L9.83428 12.0117C9.87229 12.1286 9.96003 12.2229 10.0741 12.2692L11.4412 12.8229V13.8062L10.0733 14.36C9.95893 14.406 9.87104 14.5006 9.83345 14.6179L9.70833 15H7.30563C8.24027 13.045 7.41156 10.7032 5.4547 9.76943C4.30533 9.22099 2.96103 9.26359 1.84877 9.88375V5.8625ZM1.84877 10.875C3.19777 9.82359 5.14451 10.0638 6.19687 11.4116C7.00941 12.4521 7.07213 13.8929 6.35306 15H1.84877V10.875ZM21.4507 23.3333C21.6811 23.3333 21.8678 23.5199 21.8678 23.75C21.8678 23.9801 21.6811 24.1667 21.4507 24.1667H4.76822C4.53789 24.1667 4.35115 23.9801 4.35115 23.75C4.35115 23.5199 4.53789 23.3333 4.76822 23.3333H21.4507ZM18.2736 22.5H7.9454L9.61366 19.1667H16.6053L18.2736 22.5ZM24.3702 16.6667C24.3702 17.5871 23.6233 18.3333 22.7019 18.3333H3.51703C2.59568 18.3333 1.84877 17.5871 1.84877 16.6667V15.8333H6.57076H6.57452H24.3702V16.6667ZM24.3702 15H10.7135L12.0151 14.4729C12.1723 14.4092 12.2752 14.2566 12.2754 14.0871V12.5417C12.2754 12.372 12.1725 12.2192 12.0151 12.1554L10.5654 11.5696L10.291 10.7258L11.1176 9.40083C11.2073 9.25688 11.2006 9.07302 11.1009 8.93583L10.1917 7.68583C10.0919 7.54849 9.91869 7.48536 9.75379 7.52625L8.23735 7.90125L7.52083 7.38125L7.41115 5.82708C7.39921 5.65766 7.28551 5.5124 7.12379 5.46L5.65364 4.9825C5.49187 4.93104 5.31504 4.98182 5.2053 5.11125L4.20143 6.305H3.31183L2.30754 5.11125C2.19775 4.98167 2.02066 4.93083 1.85878 4.9825L1.84877 4.98625V2.5C1.84877 1.57953 2.59568 0.833333 3.51703 0.833333H22.7019C23.6233 0.833333 24.3702 1.57953 24.3702 2.5V15Z" fill="white"/>
</g>
<defs>
<clipPath id="clip0_119897_119">
<rect width="25.0238" height="25" fill="white" transform="translate(0.597534)"/>
</clipPath>
</defs>
</svg>
